HIERARCHY
ROOT Hips
{
	OFFSET -3.958830 18.904000 13.208200
	CHANNELS 6 Xposition Yposition Zposition Zrotation Yrotation Xrotation 
	JOINT LHipJoint
	{
		OFFSET 0.000000 0.000000 0.000000
		CHANNELS 3 Zrotation Yrotation Xrotation
		JOINT LeftUpLeg
		{
			OFFSET 1.800000 -1.400000 0.085000
			CHANNELS 3 Zrotation Yrotation Xrotation
			JOINT LeftLeg
			{
				OFFSET 2.215000 -6.000000 0.000000
				CHANNELS 3 Zrotation Yrotation Xrotation
				JOINT LeftFoot
				{
					OFFSET 2.500000 -6.900000 0.000000
					CHANNELS 3 Zrotation Yrotation Xrotation
					JOINT LeftToeBase
					{
						OFFSET 0.200000 -0.500000 1.950000
						CHANNELS 3 Zrotation Yrotation Xrotation
						End Site
						{
							OFFSET 0.000000 0.000000 0.000000
						}
					}
				}
			}
		}
	}
	JOINT RHipJoint
	{
		OFFSET 0.000000 0.000000 0.000000
		CHANNELS 3 Zrotation Yrotation Xrotation
		JOINT RightUpLeg
		{
			OFFSET -1.800000 -1.400000 0.085000
			CHANNELS 3 Zrotation Yrotation Xrotation
			JOINT RightLeg
			{
				OFFSET -2.215000 -6.000000 0.000000
				CHANNELS 3 Zrotation Yrotation Xrotation
				JOINT RightFoot
				{
					OFFSET -2.500000 -6.900000 0.000000
					CHANNELS 3 Zrotation Yrotation Xrotation
					JOINT RightToeBase
					{
						OFFSET -0.200000 -0.500000 1.950000
						CHANNELS 3 Zrotation Yrotation Xrotation
						End Site
						{
							OFFSET 0.000000 0.000000 0.000000
						}
					}
				}
			}
		}
	}
	JOINT LowerBack
	{
		OFFSET 0.000000 0.000000 0.000000
		CHANNELS 3 Zrotation Yrotation Xrotation
		JOINT Spine
		{
			OFFSET -0.087000 1.940000 -0.288900
			CHANNELS 3 Zrotation Yrotation Xrotation
			JOINT Spine1
			{
				OFFSET 0.000000 1.950000 0.060000
				CHANNELS 3 Zrotation Yrotation Xrotation
				JOINT Neck
				{
					OFFSET 0.000000 0.000000 0.000000
					CHANNELS 3 Zrotation Yrotation Xrotation
					JOINT Neck1
					{
						OFFSET 0.000000 1.600000 0.340000
						CHANNELS 3 Zrotation Yrotation Xrotation
						JOINT Head
						{
							OFFSET 0.000000 1.667000 -0.240000
							CHANNELS 3 Zrotation Yrotation Xrotation
							End Site
							{
								OFFSET 0.000000 0.000000 0.000000
							}
						}
					}
				}
				JOINT LeftShoulder
				{
					OFFSET 0.000000 0.000000 0.000000
					CHANNELS 3 Zrotation Yrotation Xrotation
					JOINT LeftArm
					{
						OFFSET 2.700000 1.550000 -0.730000
						CHANNELS 3 Zrotation Yrotation Xrotation
						JOINT LeftForeArm
						{
							OFFSET 5.450000 0.000000 0.000000
							CHANNELS 3 Zrotation Yrotation Xrotation
							JOINT LeftHand
							{
								OFFSET 3.450000 0.000000 0.000000
								CHANNELS 3 Zrotation Yrotation Xrotation
								JOINT LeftHandIndex1
								{
									OFFSET 0.750000 0.000000 0.000000
									CHANNELS 3 Zrotation Yrotation Xrotation
									End Site
									{
										OFFSET 0.000000 0.000000 0.000000
									}
								}
							}
						}
					}
				}
				JOINT RightShoulder
				{
					OFFSET 0.000000 0.000000 0.000000
					CHANNELS 3 Zrotation Yrotation Xrotation
					JOINT RightArm
					{
						OFFSET -2.700000 1.550000 -0.730000
						CHANNELS 3 Zrotation Yrotation Xrotation
						JOINT RightForeArm
						{
							OFFSET -5.450000 0.000000 0.000000
							CHANNELS 3 Zrotation Yrotation Xrotation
							JOINT RightHand
							{
								OFFSET -3.450000 0.000000 0.000000
								CHANNELS 3 Zrotation Yrotation Xrotation
								JOINT RightHandIndex1
								{
									OFFSET -0.750000 0.000000 0.000000
									CHANNELS 3 Zrotation Yrotation Xrotation
									End Site
									{
										OFFSET 0.000000 0.000000 0.000000
									}
								}
							}
						}
					}
				}
			}
		}
	}
}
MOTION
Frames: 5
Frame Time: 0.016667
-0.378190 17.547410 -0.303180 -23.616881 60.773548 -24.106824 -15.763546 13.320973 2.087772 11.990483 -1.030576 -13.691993 -2.633511 5.832163 18.592052 -0.530728 4.061352 3.080971 0.620530 0.388810 0.355180 17.708253 -9.814990 4.351693 -23.281334 6.008939 -36.534561 17.385995 -18.652781 50.066585 -1.214153 -9.278495 1.210000 0.263550 -0.027910 -0.088780 -4.747215 -1.080406 -8.427933 21.442030 -7.445517 35.626565 -9.981591 -0.212609 13.353176 7.208417 3.341393 -11.025783 3.467646 -13.663917 37.357340 13.324410 -16.246710 -21.275130 -9.782781 -17.530811 3.859259 -16.435372 -12.420961 -9.009057 37.675108 -52.926593 -18.588932 -3.067911 2.754202 0.525860 -0.205150 -0.025250 0.163430 -4.404375 16.801906 8.010730 -3.467275 5.130274 -11.939248 -47.078129 27.883143 -12.528708 2.148907 -1.627842 -0.131250 0.269610 -0.147100 -0.168000 
-0.414770 17.557320 -0.283750 -26.115372 62.669796 -25.059239 -15.856933 12.928489 1.958439 12.260149 -0.915485 -14.689669 -3.200553 5.700382 16.911598 -0.592134 3.862220 3.110066 0.729050 0.493370 0.456500 17.715204 -9.396020 4.785362 -21.934758 8.392923 -38.703281 21.444285 -23.400876 55.906347 -1.763357 -10.933272 0.721967 0.319670 -0.117610 -0.033800 -5.079375 -0.605731 -8.673991 23.628836 -7.876126 33.365858 -11.144738 -0.462745 13.095373 8.113042 4.130765 -10.636714 5.436440 -14.361853 36.906705 11.492160 -15.586000 -23.419380 -11.273799 -17.449465 4.495959 -18.356135 -11.314496 -8.384148 35.774232 -49.909984 -16.414060 -3.068045 2.863237 0.560570 -0.237550 0.042890 0.162360 -4.558577 16.398189 6.744763 -0.697203 9.767073 -12.626692 -52.335935 36.187692 -18.014828 1.995700 -1.556781 -0.082780 0.215800 -0.196000 -0.195480 
-0.453590 17.569710 -0.262550 -27.866824 64.212668 -26.393446 -15.944804 12.655628 1.832844 12.535285 -0.688057 -14.585390 -3.894608 5.788241 15.831075 -0.565605 3.769528 3.153097 0.791470 0.550440 0.546400 17.697027 -9.037206 5.131898 -20.311717 10.970453 -39.885147 25.420682 -28.156600 60.900943 -2.301717 -12.377653 0.375698 0.335970 -0.202050 -0.068160 -5.400474 -0.209702 -8.901206 25.112756 -8.086509 32.288837 -11.904620 -0.618343 13.180850 8.269559 4.517205 -10.890551 6.421411 -14.508594 38.963528 12.065510 -15.350050 -25.377460 -12.413600 -18.428593 6.013218 -21.381076 -9.082365 -8.624787 36.735030 -46.982710 -15.913436 -2.980925 2.873887 0.617410 -0.315900 0.111770 0.179240 -3.614004 17.407166 5.770777 1.463718 14.296905 -13.466383 -58.121714 42.729571 -24.064348 1.924781 -1.366009 -0.078660 0.221430 -0.275600 -0.216510 
-0.472040 17.533940 -0.238810 -29.732756 65.720820 -27.085023 -16.054183 12.300496 1.689755 12.426508 -0.740774 -16.163431 -4.323066 6.100124 17.083112 -0.583359 3.815920 3.106164 0.785680 0.529160 0.585230 17.668480 -8.716526 5.478206 -18.843514 13.390499 -41.838338 29.183240 -33.846612 66.004886 -2.836101 -13.937170 0.018968 0.312100 -0.258660 -0.057010 -5.884746 0.424960 -9.141051 27.375477 -8.227764 30.035160 -13.647568 -0.589595 12.807519 8.405269 5.292286 -11.361486 8.294426 -15.054792 40.250084 11.033400 -15.012850 -26.130490 -12.695643 -18.772592 7.357714 -24.681481 -6.323417 -8.643943 36.344990 -45.078831 -14.959623 -2.963019 2.897887 0.667230 -0.343410 0.152840 0.153330 -3.697382 17.348532 5.359224 6.885279 17.754342 -13.378113 -66.754002 52.096608 -34.263771 1.734508 -0.966700 -0.080180 0.192800 -0.281930 -0.248940 
-0.491030 17.493320 -0.212700 -31.825805 67.452044 -29.153616 -16.159369 12.204169 1.629346 12.436809 -0.725186 -17.356880 -4.533883 6.611300 19.240809 -0.570012 4.054331 3.016743 0.739310 0.450230 0.609300 17.588673 -8.464860 5.633810 -16.922194 15.228271 -41.463419 33.428953 -38.991911 68.536455 -3.212078 -14.953432 -0.172887 0.263400 -0.274690 -0.081110 -6.167518 0.725988 -9.294311 29.092621 -8.576231 29.169562 -14.677526 -0.763083 12.598833 8.357189 5.041289 -11.902866 7.985430 -15.169238 41.971593 11.062290 -15.504910 -26.823750 -12.359094 -19.309599 8.557638 -28.608614 -4.401465 -8.498213 34.974785 -40.688117 -12.988603 -2.968674 2.879833 0.712850 -0.370530 0.160720 0.115370 -4.058272 18.336726 5.171018 11.186828 19.885853 -13.680777 -73.356784 61.730600 -44.654936 1.482207 -0.210836 -0.112870 0.214950 -0.263840 -0.277290 
